# xmcd
#
# Track frame offsets: 
#        150
#        11153
#        20094
#        29334
#        39828
#        52231
#        64655
#        78756
#        91793
#        105409
#        117784
#        131270
#        141508
#        152638
#        167444
#        178638
#        191105
#        204629
#        218150
#        229227
#        241452
#        255965
#        267908
#        278799
#        290472
#        301603
#        311319
#
# Disc length: 4318 seconds
#
# Revision: 0
# Processed by: cddbd v1.5.2PL0 Copyright (c) Steve Scherf et al.
# Submitted via: ExactAudioCopy v1.0b1
#
DISCID=6c10dc1b
DTITLE=Roosevelt Grier - Welcome To The Club
DYEAR=2010
DGENRE=R&B
TTITLE0=High Society Woman
TTITLE1=Deputy Dog
TTITLE2=Why Don't You Do Right
TTITLE3=Sincerely
TTITLE4=Moonlight In Vermont
TTITLE5=Smokey Morning
TTITLE6=Beautiful People
TTITLE7=Spanish Harlem
TTITLE8=I Don't Want Nobody
TTITLE9=Rat Race
TTITLE10=You're The Violin
TTITLE11=Uptown
TTITLE12=In The Park
TTITLE13=Ring Around The World
TTITLE14=C'mon Cupid
TTITLE15=In My Tenement
TTITLE16=I (Who Have Nothing)
TTITLE17=Take Time To Love Somebody
TTITLE18=The Mail Must Go Thru
TTITLE19=Up On The Roof
TTITLE20=I'm Living Good
TTITLE21=Pizza Pie Man
TTITLE22=Your Has Been
TTITLE23=Why
TTITLE24=It's All Right To Cry
TTITLE25=Lover Set Me Free
TTITLE26=Welcome To The Club
EXTD=
EXTT0=
EXTT1=
EXTT2=
EXTT3=
EXTT4=
EXTT5=
EXTT6=
EXTT7=
EXTT8=
EXTT9=
EXTT10=
EXTT11=
EXTT12=
EXTT13=
EXTT14=
EXTT15=
EXTT16=
EXTT17=
EXTT18=
EXTT19=
EXTT20=
EXTT21=
EXTT22=
EXTT23=
EXTT24=
EXTT25=
EXTT26=
PLAYORDER=
